<svg width="1280" height="720" viewBox="0 0 1280 720" fill="none" xmlns="http://www.w3.org/2000/svg">
<g clip-path="url(#clip0_1_189)">
<rect width="1280" height="720" fill="#1E1D2C"/>
<path d="M1260 0H0V700.5H634.5L683.656 664.087H1260V0Z" fill="#C2C2C2"/>
<path d="M76.5 49.5H71.5V35.5H84.5V40.5H76.5V49.5Z" fill="#1E1D2C" fill-opacity="0.5"/>
<path d="M51 634V639H37V626H42V634H51Z" fill="#1E1D2C" fill-opacity="0.5"/>
<path d="M1215.5 624.5H1220.5V638.5H1207.5V633.5H1215.5V624.5Z" fill="#1E1D2C" fill-opacity="0.5"/>
<path d="M705.5 672L663 714.5" stroke="#C2C2C2" stroke-width="6"/>
<path d="M695.5 672L653 714.5" stroke="#C2C2C2" stroke-width="6"/>
<rect x="676" y="669" width="89" height="14" fill="#1E1D2C"/>
<rect x="637" y="705" width="80" height="18" fill="#1E1D2C"/>
<path d="M0 97H347L370 74H710.5" stroke="#1E1D2C" stroke-width="6"/>
<path d="M717 74H1157.5V142" stroke="#1E1D2C" stroke-opacity="0.2" stroke-width="6"/>
<path d="M1139 110L1119 90H1139V110Z" fill="#1E1D2C" stroke="#1E1D2C" stroke-width="6"/>
<path d="M717 573L1158 573" stroke="#1E1D2C" stroke-opacity="0.5" stroke-width="3"/>
<path d="M1202 37V32H1216V45H1211V37H1202Z" fill="#1E1D2C" fill-opacity="0.5"/>
<rect x="1036" y="45" width="56" height="16" fill="#1E1D2C" fill-opacity="0.35"/>
<path d="M718.44 559V542.2H722.808V555.136H732.792V559H718.44ZM742.559 559.384C737.231 559.384 733.799 555.928 733.799 550.624C733.799 545.296 737.231 541.84 742.559 541.84C747.887 541.84 751.343 545.296 751.343 550.624C751.343 555.928 747.887 559.384 742.559 559.384ZM738.503 550.624C738.503 553.6 740.087 555.52 742.559 555.52C745.031 555.52 746.615 553.6 746.615 550.624C746.615 547.624 745.031 545.704 742.559 545.704C740.087 545.704 738.503 547.624 738.503 550.624ZM764.339 542.2L769.979 559H765.347L764.123 555.352H757.523L756.275 559H751.667L757.283 542.2H764.339ZM758.795 551.464H762.827L761.027 546.088H760.595L758.795 551.464ZM787.509 550.6V550.624C787.509 555.928 783.837 559.024 778.509 559.024H771.573V542.2H778.509C783.837 542.2 787.509 545.296 787.509 550.6ZM775.941 555.136H778.509C780.981 555.136 782.805 553.48 782.805 550.624C782.805 547.744 780.981 546.088 778.509 546.088H775.941V555.136ZM789.69 542.2H794.058V559H789.69V542.2ZM796.956 542.2H801.324L807.876 552.016V542.2H812.244V559H807.876L801.324 549.208V559H796.956V542.2ZM814.495 550.6C814.495 545.032 817.687 541.84 823.255 541.84C827.623 541.84 830.503 543.784 831.583 547.288L827.071 548.656C826.495 546.784 825.103 545.704 823.255 545.704C820.663 545.704 819.199 547.48 819.199 550.6C819.199 553.744 820.663 555.52 823.255 555.52C825.367 555.52 826.663 554.44 826.951 552.52H822.727V549.856H831.583V559H828.919V557.392C827.623 558.736 825.631 559.384 823.255 559.384C817.687 559.384 814.495 556.192 814.495 550.6Z" fill="black"/>
<path d="M716 573L984 573" stroke="#1E1D2C" stroke-width="5"/>
<path d="M119 239H114V225H127V230H119V239Z" fill="#1E1D2C" fill-opacity="0.5"/>
<path d="M117 379V384H103V371H108V379H117Z" fill="#1E1D2C" fill-opacity="0.5"/>
<path d="M341 375H346V389H333V384H341V375Z" fill="#1E1D2C" fill-opacity="0.5"/>
<path d="M313 221V216H327V229H322V221H313Z" fill="#1E1D2C" fill-opacity="0.5"/>
<path d="M131.44 254V237.2H139.792C144.616 237.2 147.376 239.72 147.376 242.984C147.376 246.248 144.616 248.744 139.792 248.744H135.808V254H131.44ZM140.488 244.856C141.928 244.856 142.672 243.8 142.672 242.984C142.672 242.168 141.928 241.088 140.488 241.088H135.808V244.856H140.488ZM149.323 254V237.2H157.675C162.499 237.2 165.259 239.72 165.259 242.984C165.259 245.168 164.011 247.016 161.731 248L165.163 254H160.171L157.147 248.744H153.691V254H149.323ZM158.371 244.856C159.811 244.856 160.555 243.8 160.555 242.984C160.555 242.168 159.811 241.088 158.371 241.088H153.691V244.856H158.371ZM175.504 254.384C170.176 254.384 166.744 250.928 166.744 245.624C166.744 240.296 170.176 236.84 175.504 236.84C180.832 236.84 184.288 240.296 184.288 245.624C184.288 250.928 180.832 254.384 175.504 254.384ZM171.448 245.624C171.448 248.6 173.032 250.52 175.504 250.52C177.976 250.52 179.56 248.6 179.56 245.624C179.56 242.624 177.976 240.704 175.504 240.704C173.032 240.704 171.448 242.624 171.448 245.624ZM211.062 237.2V241.088H205.038V254.024H200.646V241.088H194.646V237.2H211.062ZM212.768 237.2H217.136V254H212.768V237.2ZM220.034 254V237.2H228.386C233.21 237.2 235.97 239.72 235.97 242.984C235.97 246.248 233.21 248.744 228.386 248.744H224.402V254H220.034ZM229.082 244.856C230.522 244.856 231.266 243.8 231.266 242.984C231.266 242.168 230.522 241.088 229.082 241.088H224.402V244.856H229.082ZM237.629 241.784C237.629 240.584 238.541 239.672 239.741 239.672C240.941 239.672 241.853 240.584 241.853 241.784C241.853 242.984 240.941 243.92 239.741 243.92C238.541 243.92 237.629 242.984 237.629 241.784ZM239.741 251.552C238.541 251.552 237.629 250.64 237.629 249.44C237.629 248.24 238.541 247.304 239.741 247.304C240.941 247.304 241.853 248.24 241.853 249.44C241.853 250.64 240.941 251.552 239.741 251.552Z" fill="black"/>
</g>
<defs>
<clipPath id="clip0_1_189">
<rect width="1280" height="720" fill="white"/>
</clipPath>
</defs>
</svg>
